<svg width="291" height="106" viewBox="0 0 291 106" fill="none" xmlns="http://www.w3.org/2000/svg">
<g clip-path="url(#clip0_8_2)">
<path d="M4.8571 99.4658V93.7587H5.7071H6.55709V98.7372V103.716H9.2285H11.8999V104.444V105.173H8.37851H4.8571V99.4658ZM16.5142 99.4658V93.7587H19.9141H23.3141V94.3658V94.9729H20.7641H18.2141V96.6641V98.3553L20.582 98.4248L22.9498 98.4943L23.0267 99.1622L23.1035 99.83H20.6588H18.2141V101.773V103.716H20.8856H23.557V104.444V105.173H20.0356H16.5142V99.4658ZM27.6558 105.062C27.5823 104.989 28.4605 102.417 29.6074 99.3479L31.6926 93.7673H32.7855H33.8783L35.8874 99.1677C36.9924 102.138 37.894 104.677 37.8909 104.811C37.8879 104.945 37.5307 105.054 37.0973 105.054C36.3446 105.054 36.2775 104.974 35.6073 103.284L34.9055 101.515L32.6975 101.585L30.4895 101.654L29.8721 103.354C29.3088 104.905 29.1905 105.06 28.5221 105.126C28.1191 105.166 27.7293 105.138 27.6558 105.065V105.062ZM34.4854 100.186C34.4854 100.115 34.17 99.2138 33.7844 98.1829C33.3988 97.1521 33.0067 96.0901 32.913 95.8229C32.7833 95.4529 32.5453 95.8794 31.9141 97.6136C31.4583 98.8656 31.0855 99.9857 31.0855 100.103C31.0855 100.22 31.8505 100.316 32.7855 100.316C33.7204 100.316 34.4854 100.258 34.4854 100.186ZM42.6251 104.656C42.5473 104.339 42.5146 101.785 42.5524 98.98L42.6211 93.8801L44.4472 93.6666C49.7502 93.0464 53.0674 95.1935 53.0118 99.2101C52.9763 101.78 51.9729 103.407 49.8113 104.4C48.6598 104.929 48.0109 105.041 45.6081 105.129C42.7823 105.231 42.7658 105.229 42.6251 104.656ZM47.6728 103.733C49.8279 103.232 51.2425 101.46 51.2425 99.2599C51.2425 97.7108 50.7463 96.6321 49.6483 95.7942C48.8269 95.1673 48.5076 95.0855 46.5869 95.0095L44.4425 94.9246V99.4416V103.959L45.5961 103.953C46.2305 103.95 47.1651 103.851 47.6728 103.733ZM57.9678 105.017C57.8753 104.925 57.7995 102.354 57.7995 99.3039V93.7587H61.3209H64.8423V94.3658V94.9729H62.1709H59.4995V96.6729V98.3729H61.9281H64.3566V99.1015V99.83H61.9281H59.4995V101.773V103.716H62.3085H65.1175L65.0406 104.384L64.9638 105.051L61.5499 105.119C59.6723 105.155 58.0604 105.11 57.9678 105.017ZM69.9423 99.5005V93.7973L71.5379 93.6264C73.3955 93.4275 75.6079 93.7955 76.4994 94.4515C78.0521 95.5942 78.0741 97.5014 76.5503 98.8621L75.5945 99.7155L76.1627 100.144C76.5416 100.43 76.9352 101.242 77.3437 102.582C77.6808 103.687 77.9565 104.722 77.9565 104.882C77.9565 105.051 77.6113 105.173 77.1344 105.173C76.3153 105.173 76.3104 105.166 75.8035 103.301C75.1694 100.969 74.6072 100.356 72.9151 100.156L71.66 100.007L71.5904 102.529L71.5209 105.051L70.7316 105.128L69.9423 105.204V99.5005ZM75.3038 98.1488C76.5365 96.9161 76.0569 95.4423 74.2661 94.9601C73.7155 94.8119 72.8998 94.759 72.4536 94.8427L71.6423 94.995V96.9268V98.8586H73.1181C74.4255 98.8586 74.6749 98.7776 75.3038 98.1488ZM89.5326 105.011C89.4436 104.922 89.3707 102.354 89.3707 99.3039V93.7587H90.2207H91.0707V99.4658V105.173H90.3826C90.0042 105.173 89.6217 105.1 89.5326 105.011ZM96.8294 105.022C96.7343 104.927 96.6564 102.347 96.6564 99.2899V93.7308L97.6737 93.8054C98.8063 93.8886 98.7322 93.8023 102.804 99.7769L104.671 102.516V98.1376V93.7587H105.399H106.128V99.4658V105.173H105.329C104.572 105.173 104.394 104.977 101.989 101.496C100.592 99.4737 99.259 97.459 99.0265 97.0189C98.794 96.5788 98.5208 96.1673 98.4194 96.1045C98.3179 96.0417 98.2349 98.0291 98.2349 100.521V105.051L97.6187 105.123C97.2798 105.163 96.9246 105.117 96.8294 105.022ZM118.513 99.4723V93.7587H121.913H125.313V94.3658V94.973H122.763H120.213V96.6729V98.3729H122.642H125.07V99.1015V99.8301H122.642H120.213V101.765V103.7L122.945 103.769L125.678 103.837V104.444V105.051L122.095 105.119L118.513 105.186V99.4723ZM130.575 105.011C130.486 104.922 130.413 102.354 130.413 99.3039V93.7587L131.445 93.7677C132.6 93.7779 131.988 93.0571 136.646 99.8946L138.427 102.509V98.1185V93.7278L139.217 93.8039L140.006 93.88V99.4657V105.051L139.317 105.13C138.918 105.176 138.44 105.04 138.183 104.807C137.939 104.586 136.501 102.566 134.987 100.319L132.235 96.2315L132.169 100.702L132.103 105.173H131.42C131.044 105.173 130.664 105.1 130.575 105.011ZM148.061 105.011C147.972 104.922 147.899 102.627 147.899 99.911V94.973H145.939C144.046 94.973 143.982 94.9545 144.057 94.4265C144.134 93.8841 144.169 93.8796 148.81 93.8142L153.485 93.7482V94.3606C153.485 94.9642 153.457 94.973 151.542 94.973H149.599V100.073V105.173H148.911C148.532 105.173 148.15 105.1 148.061 105.011ZM157.613 99.4723V93.7587H161.013H164.413V94.3658V94.973H161.863H159.313V96.6729V98.3729H161.742H164.17V99.1015V99.8301H161.742H159.313V101.765V103.7L162.045 103.769L164.777 103.837V104.444V105.051L161.195 105.119L157.613 105.186V99.4723ZM169.675 105.011C169.586 104.922 169.513 102.405 169.513 99.4177C169.513 94.4697 169.551 93.9716 169.938 93.8212C170.799 93.4868 174.705 93.6457 175.626 94.0526C177.774 95.0016 178.019 97.6988 176.088 99.1265C175.471 99.5829 175.4 99.7223 175.702 99.8909C176.225 100.184 176.778 101.345 177.31 103.265C177.563 104.178 177.77 104.98 177.77 105.048C177.77 105.117 177.393 105.173 176.932 105.173C176.122 105.173 176.082 105.128 175.688 103.776C174.768 100.623 174.578 100.402 172.599 100.169L171.213 100.006V102.589V105.173H170.525C170.146 105.173 169.764 105.1 169.675 105.011ZM174.649 98.5967C175.717 98.025 175.953 96.0066 175.023 95.4028C174.399 94.998 172.794 94.6983 172.024 94.8428L171.213 94.995V96.9268V98.8586H172.686C173.496 98.8586 174.379 98.7408 174.649 98.5967ZM184.922 104.865C184.851 104.679 184.824 102.377 184.863 99.7495L184.934 94.9725L183.052 94.9727C181.206 94.9727 181.17 94.9613 181.17 94.3658V93.7587H185.784H190.399V94.3658C190.399 94.9612 190.362 94.973 188.516 94.9728L186.634 94.9727V100.012V105.051L185.843 105.128C185.334 105.177 185.006 105.083 184.922 104.865ZM192.341 104.961C192.341 104.794 195.611 96.001 196.349 94.1837C196.476 93.8717 196.799 93.7587 197.565 93.7587C198.482 93.7587 198.637 93.8391 198.85 94.4265C198.982 94.7939 199.922 97.3008 200.938 99.9976C201.953 102.694 202.784 104.969 202.784 105.051C202.784 105.134 202.386 105.168 201.9 105.127C201.046 105.054 200.993 104.993 200.371 103.351L199.727 101.651L197.519 101.582L195.311 101.513L194.644 103.343C193.993 105.126 193.955 105.173 193.159 105.173C192.709 105.173 192.341 105.078 192.341 104.961ZM199.141 100.103C199.141 99.4997 197.466 95.3868 197.348 95.7015C196.686 97.4757 195.741 100.127 195.741 100.211C195.741 100.269 196.506 100.316 197.441 100.316C198.376 100.316 199.141 100.22 199.141 100.103ZM207.398 99.4658V93.7587H208.248H209.098V99.4658V105.173H208.248H207.398V99.4658ZM214.684 99.4811V93.7586H215.635C216.547 93.7586 216.642 93.8374 217.902 95.6407C221.149 100.285 221.582 100.924 222.108 101.851L222.667 102.834L222.524 98.2963L222.381 93.7586H223.268H224.155V99.4657V105.173H223.322C222.528 105.173 222.385 105.024 220.347 102.087C219.169 100.389 217.76 98.2672 217.215 97.3707L216.224 95.7408L216.243 100.396L216.263 105.051L215.473 105.127L214.684 105.204L214.684 99.4811ZM229.503 104.019C229.506 103.385 229.668 101.008 229.864 98.7371C230.06 96.4664 230.222 94.4114 230.224 94.1703C230.226 93.7997 230.403 93.7434 231.371 93.806L232.515 93.88L233.559 96.5514C234.133 98.0207 234.842 99.9605 235.134 100.862C235.606 102.317 236.055 102.987 236.055 102.233C236.055 102.085 236.783 100.118 237.672 97.8614L239.289 93.7586H240.427H241.565L241.906 98.9193C242.352 105.643 242.395 105.037 241.459 105.127C241.025 105.169 240.66 105.169 240.648 105.127C240.636 105.086 240.499 102.94 240.344 100.36L240.062 95.6682L238.241 100.297C236.481 104.768 236.396 104.925 235.739 104.928C234.951 104.93 234.972 104.971 233.007 99.5891C231.544 95.5813 231.548 95.5796 231.326 100.437C231.122 104.91 231.06 105.173 230.2 105.173C229.524 105.173 229.498 105.13 229.503 104.019ZM247.638 105.017C247.545 104.925 247.469 102.354 247.469 99.3038V93.7586H250.938H254.406L254.457 94.3657L254.507 94.9729H251.838H249.169V96.6729V98.3728H251.598H254.027V99.1014V99.83H251.598H249.169V101.765V103.7L251.902 103.768L254.634 103.837V104.444V105.051L251.22 105.118C249.342 105.155 247.73 105.11 247.638 105.017ZM259.531 105.011C259.442 104.922 259.369 102.354 259.369 99.3039V93.7587L260.402 93.7611L261.434 93.7635L264.033 97.49C265.463 99.5395 266.764 101.506 266.926 101.86C267.087 102.214 267.283 102.504 267.362 102.504C267.441 102.504 267.47 100.537 267.428 98.1324L267.35 93.7606H268.221H269.093L269.027 99.407L268.962 105.053L268.199 105.128C267.493 105.196 267.328 105.051 265.992 103.185C264.056 100.481 262.546 98.2579 261.741 96.9244L261.078 95.8249L261.074 100.5L261.069 105.175H260.381C260.003 105.175 259.62 105.102 259.531 105.013L259.531 105.011ZM277.028 105.022C276.933 104.927 276.855 102.627 276.855 99.9109V94.9728H275.034C273.253 94.9728 273.212 94.9592 273.212 94.3657V93.7586H277.826H282.441V94.3657C282.441 94.9592 282.4 94.9728 280.624 94.9728H278.808L278.742 100.012L278.676 105.051L277.939 105.124C277.534 105.163 277.124 105.118 277.028 105.022ZM0 88.0515V87.2015H145.106H290.212V88.0515V88.9015H145.106H0V88.0515ZM81.4689 80.1014C81.4037 79.9312 81.379 75.8583 81.4141 71.0504L81.4779 62.3088L86.8815 62.2434L92.285 62.1781V63.8827V65.5874H88.7636H85.2422V67.4017V69.2161L88.46 69.2838L91.6779 69.3516L91.7502 70.8695L91.8225 72.3873H88.5323H85.2422V74.6881V76.9889L88.9457 77.056L92.6493 77.123V78.7015V80.2801L87.1184 80.3454C82.815 80.3962 81.5613 80.342 81.4689 80.1014ZM128.228 71.2944V62.1781L133.631 62.2434L139.035 62.3088V63.8874V65.4659L135.453 65.5331L131.87 65.6003V67.4153V69.2302H135.149H138.427V70.8087V72.3873H135.149H131.87V74.6944V77.0016H135.646H139.421L139.349 78.6408L139.277 80.2801L133.753 80.3454L128.228 80.4107V71.2944ZM238.484 71.2898V62.178L243.887 62.2434L249.291 62.3088L249.363 63.948L249.435 65.5873H245.902H242.37V67.4087V69.2301H245.527H248.684V70.8087V72.3872H245.527H242.37V74.6944V77.0015H246.012H249.655V78.7015V80.4015H244.07H238.484V71.2898ZM96.1707 71.173V62.1873H97.9475H99.7243L100.774 63.8266C101.351 64.7282 103.093 67.4876 104.643 69.9587L107.463 74.4515L107.528 68.3194L107.593 62.1873H109.168H110.742V71.1836V80.1799L108.983 80.1086L107.224 80.0372L103.336 73.852L99.4492 67.6668L99.3844 73.9127L99.3196 80.1586H97.7451H96.1707V71.173ZM117.785 72.873V65.5873H115.235H112.685V63.8873V62.1873H119.485H126.285V63.9019V65.6165L124.16 65.5859C122.991 65.5691 121.844 65.5626 121.61 65.5713C121.215 65.5861 121.185 66.1023 121.185 72.873V80.1587H119.485H117.785V72.873ZM142.556 71.2751V62.3916L146.988 62.4717C150.916 62.5426 151.549 62.6114 152.556 63.0766C155.778 64.5654 155.936 68.9417 152.836 70.8167L151.618 71.5533L152.568 72.3953C153.365 73.1007 153.648 73.631 154.313 75.6658C154.75 77.0015 155.346 78.5588 155.637 79.1265L156.166 80.1586H154.212C151.951 80.1586 152.173 80.4131 151.169 76.6711C150.288 73.3913 149.566 72.6011 147.395 72.5422L146.16 72.5087L146.19 76.3336L146.22 80.1586H144.388H142.556V71.2751ZM150.275 69.8225C150.958 69.344 151.542 68.2301 151.542 67.4048C151.542 65.8215 150.407 65.1016 147.911 65.1016H146.199V67.6516V70.2015H147.966C149.175 70.2015 149.905 70.0817 150.275 69.8225ZM161.256 72.873V65.5873L159.009 65.5837C157.774 65.5812 156.62 65.4895 156.446 65.379C156.229 65.2413 156.153 64.7267 156.203 63.7434L156.277 62.3088L163.028 62.2442L169.778 62.1797L169.706 63.8228L169.634 65.466L167.267 65.5355L164.899 65.605V72.8819V80.1587H163.077H161.256V72.873ZM168.906 79.7336C169.209 78.9939 174.515 64.795 174.989 63.4542L175.443 62.171L177.734 62.2399L180.026 62.3088L181.069 65.1016C182.864 69.908 186.207 79.0406 186.38 79.6122C186.542 80.1465 186.503 80.1586 184.642 80.1586H182.739L182.17 78.0943L181.6 76.0301H177.75H173.9L173.256 78.0943L172.613 80.1586H170.673C168.92 80.1586 168.749 80.1174 168.906 79.7336ZM180.167 72.1965C180.027 71.8339 179.472 70.2805 178.935 68.7444C178.397 67.2084 177.875 65.8623 177.775 65.7531C177.637 65.6042 175.099 72.2523 175.099 72.761C175.099 72.8719 179.994 73.0278 180.25 72.9251C180.345 72.887 180.308 72.5591 180.167 72.1965ZM188.213 71.173V62.1873H189.913H191.613V71.173V80.1586H189.913H188.213V71.173ZM195.741 71.1628V62.1669L197.61 62.2378L199.479 62.3088L203.256 68.3219L207.034 74.335L207.099 68.2502L207.164 62.1654L208.799 62.2371L210.434 62.3088L210.498 71.2337L210.561 80.1586H208.762H206.962L203.26 74.2694C201.224 71.0303 199.409 68.2201 199.228 68.0246C198.95 67.7244 198.898 68.6424 198.898 73.9138V80.1586H197.32H195.741V71.1628ZM214.441 71.173V62.1873H217.084H219.728L221.665 67.8337C222.73 70.9392 223.792 74.0609 224.025 74.7708C224.257 75.4807 224.481 76.0272 224.522 75.9851C224.595 75.9101 225.647 72.9008 228.095 65.7694L229.325 62.1873H232.083H234.841V71.173V80.1586H233.02C232.018 80.1586 231.211 80.0766 231.227 79.9765C231.243 79.8763 231.237 76.6797 231.215 72.873L231.175 65.9516L228.584 73.0551L225.994 80.1586H224.506H223.019L220.514 73.1765C219.136 69.3364 217.916 66.0906 217.803 65.9637C217.691 65.8368 217.598 68.9788 217.598 72.9458V80.1586H216.02H214.441V71.173ZM253.113 71.2337L253.177 62.3088L254.998 62.2432L256.819 62.1776L259.977 67.2012C261.713 69.9642 263.462 72.7258 263.862 73.3382L264.591 74.4515L264.656 68.3194L264.721 62.1873H266.295H267.869V71.173V80.1586L266.109 80.1562L264.348 80.1538L260.462 73.9651L256.577 67.7765L256.512 73.9666L256.447 80.1568H254.748H253.049L253.113 71.2319V71.2337ZM274.912 72.8815V65.6043L272.423 65.5351L269.934 65.4659V63.8873V62.3088L276.684 62.2442L283.434 62.1796L283.363 63.8227L283.291 65.4659H280.922H278.554V72.8122V80.1586H276.733H274.911V72.8815H274.912Z" fill="white"/>
<path d="M40.255 66.1758L40.1925 50.2502L38.9367 49.808C36.4639 48.9372 33.9755 46.7917 32.9187 44.6192C32.5835 43.93 32.1999 42.6011 32.0664 41.6661C31.9208 40.6466 31.8217 32.0197 31.8188 20.1127L31.814 0.259294H34.4789H37.1438L37.211 21.1033L37.2783 41.9474L38.0106 43.1317C39.0293 44.7792 40.7491 45.6732 42.8995 45.6732C45.3748 45.6732 47.0824 44.701 48.1076 42.7079C48.553 41.842 48.571 40.9979 48.571 21.0331V0.259294H51.2476H53.9241L53.8583 21.5698L53.7924 42.8804L53.0196 44.4589C51.9978 46.546 50.3536 48.1644 48.2213 49.1818C47.2783 49.6318 46.3155 50.0612 46.0818 50.1361C45.6827 50.2639 45.6568 51.2438 45.6568 66.1869V82.1015H42.9871H40.3174L40.255 66.1758ZM59.0138 41.0508V0L61.6245 0.0689404L64.2352 0.137866L64.3061 2.01999C64.3451 3.05516 64.436 3.90212 64.5081 3.90212C64.5802 3.90212 65.1048 3.52059 65.6738 3.05428C66.2429 2.58796 66.7804 2.27833 66.8683 2.36619C66.9561 2.45406 67.028 2.4042 67.028 2.25539C67.028 1.57737 71.2769 0.0164384 73.1225 0.0164384C75.8003 0.0164384 78.3594 1.84238 79.4396 4.52361L80.0208 5.96639L80.0902 22.602C80.1342 33.164 80.0683 39.8275 79.9095 40.8534C79.0362 46.4951 75.1855 49.0334 66.4816 49.7047L64.3566 49.8686V65.985V82.1015H61.6852H59.0138V41.0508ZM70.0538 44.0604C72.4209 43.613 73.2957 43.1086 74.0801 41.7388L74.678 40.6947L74.7512 24.4234C74.7915 15.4742 74.7548 7.66986 74.6697 7.08047C74.4572 5.60904 73.4698 4.62878 72.2074 4.63602C69.9551 4.64894 66.887 7.13851 65.3894 10.1684L64.478 12.0121L64.4123 28.3909L64.3466 44.7697L66.2239 44.5996C67.2564 44.506 68.9799 44.2634 70.0538 44.0604ZM14.207 81.6931C9.90473 81.1455 6.75548 79.223 5.13611 76.1558L4.4928 74.9373V61.9445V48.9518L7.10349 48.8828L9.71419 48.8139V61.1189C9.71419 69.8799 9.79682 73.6996 10.0011 74.3815C10.5236 76.1255 13.1235 77.7301 15.4268 77.7301C17.2255 77.7301 19.5302 76.6474 20.5212 75.3368C21.0003 74.7032 21.0086 74.2222 21.1284 40.1483L21.2498 5.60206L16.6963 5.60209L12.1427 5.60211V2.80927V0.0164384H19.3107H26.4787L26.4142 37.5983L26.3498 75.1801L25.7861 76.2364C23.8282 79.9054 18.7952 82.2772 14.207 81.6931Z" fill="white"/>
</g>
<defs>
<clipPath id="clip0_8_2">
<rect width="290.212" height="105.204" fill="white"/>
</clipPath>
</defs>
</svg>
