<svg width="511" height="144" viewBox="0 0 511 144" fill="none" xmlns="http://www.w3.org/2000/svg">
<path d="M138.736 65.4615C139.221 64.9721 139.74 64.518 140.29 64.1026C141.582 63.25 143.141 62.8997 144.673 63.1179C146.206 63.3361 147.605 64.1077 148.608 65.287C149.436 66.4696 149.929 67.8549 150.032 69.2954C150.729 74.5918 147.025 78.8998 142.591 80.9273C141.943 81.2236 141.258 81.4421 140.583 81.6762C140.203 81.8079 139.994 81.964 140.06 82.4449C140.357 85.0934 140.327 87.7686 139.97 90.4097C139.158 97.3536 137.36 104.146 134.63 110.582C132.594 115.684 129.827 120.463 126.416 124.768C123.386 128.727 119.447 131.897 114.932 134.01C110.814 135.85 106.248 136.449 101.794 135.735C98.4939 135.142 95.4224 133.646 92.9209 131.413C91.877 130.541 90.9109 129.575 89.9467 128.686C88.6985 129.666 87.5001 130.746 86.17 131.627C81.4963 134.722 76.4061 136.528 70.7229 136.034C67.2717 135.69 63.9546 134.517 61.0537 132.616C55.5252 129.123 52.5175 123.911 51.0499 117.673C49.976 112.501 49.7095 107.194 50.2599 101.941C50.7466 95.8545 51.7096 89.8154 53.14 83.8794C54.7748 76.9709 56.606 70.1082 58.4005 63.2383C59.5911 58.6802 60.8676 54.1445 62.1017 49.5977C62.1451 49.3839 62.1771 49.1679 62.1975 48.9507C61.1894 48.8692 60.2224 48.7588 59.2525 48.7183C55.7544 48.5445 52.2479 48.6692 48.771 49.091C43.3168 49.795 38.0547 51.0974 33.2841 53.9782C30.0718 56.0555 27.3628 58.8226 25.3541 62.0782C22.5472 66.2743 21.7248 70.9682 21.9394 75.9168C22.3027 84.2954 28.0662 90.0699 35.4271 91.9889C36.114 92.1681 36.8298 92.2367 37.6425 92.3754C37.5157 92.5397 37.3779 92.6953 37.2301 92.841C33.359 96.0603 29.4852 99.2763 25.6085 102.489C24.5928 103.329 23.5296 104.112 22.5243 104.964C22.2837 105.18 21.989 105.327 21.6715 105.389C21.354 105.45 21.0258 105.424 20.7219 105.314C15.1738 103.691 11.7344 99.9918 10.0319 94.5416C8.57361 89.8721 8.84471 85.18 9.71381 80.46C11.0182 73.2468 13.7898 66.3784 17.8569 60.28C21.137 55.4547 25.034 51.0789 29.4486 47.2639C34.886 42.5097 40.9215 38.4867 47.4018 35.2972C52.7235 32.584 58.4155 30.6687 64.2949 29.613C69.0581 28.7902 73.8641 28.213 78.654 27.5473C83.8497 26.8254 89.052 26.1503 94.2454 25.4127C99.7529 24.6628 105.21 23.5784 110.585 22.1656C115.945 20.8606 121.061 18.7067 125.74 15.7856C128.598 13.9235 131.135 11.6092 133.25 8.9332C133.456 8.6722 133.687 8.4302 134.063 8C134.063 9.02 134.056 9.8384 134.064 10.6564C134.188 15.4769 133.747 20.2953 132.749 25.013C131.246 31.6387 128.355 37.499 123.203 42.0769C119.802 45.018 115.797 47.1771 111.47 48.4022C108.285 49.3854 104.995 49.9883 101.668 50.1985C98.6088 50.3774 95.5355 50.3457 92.4686 50.3427C90.9615 50.3412 89.4551 50.1664 87.9472 50.1401C87.7845 50.1619 87.6291 50.2211 87.493 50.3129C87.3569 50.4047 87.2439 50.5267 87.1627 50.6694C84.9676 55.3809 82.7935 60.1021 80.6405 64.833C77.5505 71.6136 74.7059 78.493 72.2869 85.5462C70.6096 90.3112 69.2965 95.1968 68.3591 100.161C67.3403 104.857 67.1529 109.696 67.8053 114.458C68.2882 118.206 70.1352 121.645 72.9934 124.118C73.8419 124.886 74.8374 125.474 75.9198 125.846C77.0021 126.217 78.1487 126.366 79.2901 126.282C80.4315 126.197 81.5439 125.882 82.5599 125.355C83.5759 124.829 84.4743 124.101 85.2008 123.217C85.3619 123.063 85.4568 122.853 85.4656 122.631C85.4744 122.409 85.3963 122.192 85.2478 122.027C83.236 118.594 81.7382 114.884 80.8023 111.017C79.403 105.175 79.0955 99.3131 80.8697 93.4834C81.9891 89.299 84.4892 85.6155 87.9644 83.03C90.7832 80.8773 94.3067 79.8596 97.8392 80.1779C103.576 80.7829 107.711 83.5666 109.484 89.6551C110.745 94.3117 110.48 99.2501 108.728 103.745C106.514 110.093 102.752 115.495 98.3845 120.519C98.0386 120.917 97.7036 121.329 97.3217 121.69C97.0031 121.992 97.0206 122.198 97.3035 122.522C98.431 123.714 99.924 124.494 101.546 124.74C104.861 125.462 107.806 124.415 110.605 122.821C114.658 120.513 117.389 116.967 119.552 112.934C121.235 109.812 122.459 106.463 123.185 102.991C124.787 95.9412 124.447 88.5893 122.201 81.718C121.415 79.4721 120.211 77.395 118.654 75.5961C117.817 74.6428 117.057 73.6239 116.383 72.5494C115.945 71.8784 115.722 71.0903 115.743 70.2895C115.764 69.4888 116.028 68.7133 116.5 68.0661C119.042 64.3561 122.416 62.0773 127.082 62.284C128.2 62.3565 129.293 62.6534 130.295 63.157C131.296 63.6607 132.186 64.3607 132.912 65.2154C134.255 66.6759 135.416 68.3033 136.702 69.819C137.112 70.3558 137.647 70.7848 138.26 71.069C138.874 71.3532 139.547 71.4841 140.222 71.4504C140.537 71.4505 140.847 71.3749 141.126 71.2302C141.406 71.0854 141.647 70.8756 141.829 70.6184C142.01 70.3613 142.128 70.0642 142.171 69.7523C142.214 69.4404 142.182 69.1226 142.077 68.8258C141.889 68.2163 141.579 67.6512 141.167 67.1648C140.754 66.6783 140.247 66.2806 139.677 65.9958C139.433 65.8557 139.189 65.7182 138.736 65.4615ZM92.4586 112.532C92.7632 112.169 92.9329 111.979 93.0886 111.779C94.8005 109.586 96.2148 107.177 97.2947 104.613C98.21 102.549 98.7155 100.327 98.7831 98.07C98.8094 96.1631 98.0471 94.7521 96.7069 94.2071C95.9703 93.9381 95.1704 93.8941 94.4087 94.0808C93.647 94.2674 92.958 94.6762 92.4292 95.2553C91.6544 96.1802 91.1576 97.3058 90.9967 98.5016C90.363 102.512 90.6144 106.613 91.7331 110.517C91.8978 111.148 92.1736 111.75 92.4586 112.532Z" fill="#FF0000"/>
<path d="M353.781 42.6179H335.578V115.299H353.781V42.6179Z" fill="#FF0000"/>
<path d="M479.098 98.8776V86.6546H500.37V70.3219H479.098V58.5603H500.166V42.4901H479.098H459.612V115.172H472.267V115.206H500.805V98.8776H479.098Z" fill="#FF0000"/>
<path d="M220.849 42.7017H206.738V42.6509H188.814V42.7017H175V58.6788H188.814V115.197H206.738V58.6788H220.849V42.7017Z" fill="#FF0000"/>
<path d="M305.738 42.306C303.567 51.122 296.616 79.6043 295.303 85.0289C294.863 83.1243 284.558 43.3103 284.346 42.5586L284.34 42.5371L284.322 42.4728H269.312C269.312 42.4728 258.79 83.1878 258.35 85.0924C257.036 79.6678 250.086 51.1855 247.914 42.3695C244.779 42.3826 231.903 42.3936 228.6 42.3847C229.03 44.0091 241.876 90.0501 249.359 115.284L265.674 115.233C265.674 115.233 275.868 77.2689 276.818 73.6866C277.774 77.2909 287.978 115.169 287.978 115.169L304.294 115.219C311.777 89.9858 324.623 43.9469 325.053 42.3204C321.75 42.3301 308.874 42.3191 305.738 42.306Z" fill="#FF0000"/>
<path d="M442.347 69.6L422.8 69.4806L421.915 67.9811C420.479 65.8388 418.629 64.005 416.475 62.5874C414.32 61.1698 411.904 60.1969 409.368 59.7259C406.326 59.2416 403.21 59.5448 400.319 60.6066C396.223 62.0778 392.741 64.8839 390.433 68.5735C388.126 72.263 387.126 76.6216 387.595 80.9481C388.008 85.0017 389.672 88.8263 392.357 91.8913C395.042 94.9563 398.614 97.1098 402.578 98.0531C406.676 99.1068 411.017 98.6443 414.801 96.7508C417.172 95.3431 419.262 93.5101 420.968 91.344C421.375 90.8129 423.249 88.3031 423.249 88.3031L442.142 88.43C440.362 96.4697 435.912 103.67 429.518 108.857C423.123 114.045 415.16 116.915 406.926 116.998C397.276 117.089 387.962 113.455 380.923 106.853C373.884 100.25 369.663 91.187 369.137 81.5504C368.286 72.1849 371.015 62.8447 376.774 55.4106C382.534 47.9766 390.896 43.001 400.177 41.4859C409.459 39.9708 418.969 42.0287 426.794 47.2453C434.618 52.4618 440.176 60.4499 442.347 69.6Z" fill="#FF0000"/>
</svg>
