<svg width="90" height="90" viewBox="0 0 90 90" fill="none" xmlns="http://www.w3.org/2000/svg">
<path d="M78.6288 41.1681C78.9003 40.8941 79.191 40.6399 79.4986 40.4073C80.2218 39.93 81.0947 39.7339 81.9525 39.8561C82.8104 39.9782 83.5938 40.4102 84.155 41.0704C84.6191 41.7324 84.8948 42.508 84.9527 43.3144C85.3425 46.2794 83.269 48.6911 80.7866 49.8261C80.4239 49.992 80.0406 50.1143 79.6629 50.2454C79.4502 50.3191 79.3331 50.4065 79.3699 50.6757C79.5365 52.1584 79.5196 53.656 79.3195 55.1346C78.865 59.0219 77.8584 62.8245 76.33 66.4275C75.1904 69.2837 73.6415 71.9589 71.7317 74.3692C70.0356 76.5852 67.8304 78.3599 65.303 79.543C62.9972 80.5727 60.4415 80.9082 57.9481 80.5087C56.1005 80.1768 54.381 79.3394 52.9806 78.0892C52.3962 77.6009 51.8553 77.0602 51.3156 76.5623C50.6168 77.1109 49.9459 77.7155 49.2013 78.2085C46.5849 79.9414 43.7353 80.9526 40.5537 80.6761C38.6216 80.4833 36.7647 79.8268 35.1407 78.7624C32.0457 76.8071 30.362 73.8891 29.5404 70.3973C28.9392 67.502 28.79 64.531 29.0981 61.59C29.3706 58.1827 29.9097 54.8019 30.7104 51.4788C31.6256 47.6113 32.6508 43.7694 33.6554 39.9235C34.3219 37.3718 35.0365 34.8326 35.7274 32.2872C35.7517 32.1675 35.7696 32.0466 35.781 31.925C35.2167 31.8794 34.6753 31.8176 34.1323 31.7949C32.1741 31.6976 30.211 31.7674 28.2646 32.0035C25.2112 32.3977 22.2654 33.1268 19.5947 34.7395C17.7964 35.9024 16.2799 37.4515 15.1554 39.274C13.584 41.6231 13.1236 44.2508 13.2437 47.0212C13.4471 51.7117 16.6736 54.9443 20.7944 56.0186C21.179 56.119 21.5797 56.1574 22.0346 56.235C21.9636 56.327 21.8865 56.4141 21.8038 56.4957C19.6367 58.2979 17.468 60.0982 15.2978 61.8968C14.7292 62.367 14.134 62.8056 13.5712 63.2825C13.4365 63.4035 13.2715 63.4856 13.0938 63.5201C12.916 63.5545 12.7323 63.54 12.5622 63.4782C9.45622 62.5698 7.53078 60.4988 6.57769 57.4477C5.7613 54.8336 5.91307 52.2069 6.39961 49.5645C7.12985 45.5265 8.68145 41.6813 10.9583 38.2674C12.7946 35.5661 14.9761 33.1164 17.4475 30.9807C20.4915 28.3192 23.8703 26.067 27.4981 24.2815C30.4773 22.7626 33.6638 21.6904 36.9552 21.0994C39.6217 20.6388 42.3122 20.3156 44.9937 19.943C47.9023 19.5388 50.8147 19.1609 53.7221 18.748C56.8053 18.3282 59.8601 17.7211 62.8695 16.9302C65.8698 16.1996 68.7339 14.9938 71.3534 13.3585C72.9534 12.3161 74.3733 11.0205 75.5576 9.52242C75.6731 9.37631 75.8021 9.24083 76.0126 9C76.0126 9.57102 76.0085 10.0292 76.0132 10.4871C76.0827 13.1857 75.8356 15.8831 75.2771 18.5242C74.4359 22.2334 72.8175 25.5141 69.9332 28.0769C68.029 29.7234 65.7868 30.9321 63.3647 31.6179C61.5816 32.1683 59.7397 32.5059 57.8773 32.6235C56.1648 32.7237 54.4443 32.706 52.7274 32.7043C51.8837 32.7034 51.0404 32.6056 50.1962 32.5909C50.1051 32.6031 50.0181 32.6362 49.9419 32.6876C49.8657 32.739 49.8025 32.8073 49.757 32.8872C48.5281 35.5248 47.3111 38.1678 46.1058 40.8162C44.3759 44.6121 42.7835 48.4634 41.4293 52.4119C40.4903 55.0795 39.7552 57.8145 39.2304 60.5934C38.6601 63.2226 38.5551 65.9315 38.9204 68.5971C39.1907 70.6955 40.2247 72.6207 41.8248 74.0049C42.2998 74.4349 42.8571 74.764 43.463 74.9722C44.0689 75.1805 44.7108 75.2635 45.3498 75.2164C45.9887 75.1692 46.6115 74.9928 47.1803 74.6979C47.749 74.4029 48.252 73.9956 48.6587 73.5005C48.7489 73.4147 48.802 73.2971 48.807 73.1728C48.8119 73.0484 48.7681 72.927 48.685 72.8343C47.5588 70.9124 46.7203 68.8358 46.1964 66.6707C45.413 63.4003 45.2408 60.1189 46.2341 56.8553C46.8608 54.5128 48.2603 52.4507 50.2058 51.0033C51.7839 49.7981 53.7564 49.2284 55.7339 49.4066C58.9453 49.7453 61.2601 51.3037 62.2526 54.7121C62.9588 57.319 62.8105 60.0836 61.8296 62.6C60.5903 66.1534 58.4842 69.1779 56.0392 71.9905C55.8456 72.2133 55.658 72.4439 55.4442 72.646C55.2659 72.8147 55.2757 72.9301 55.434 73.1119C56.0653 73.7787 56.901 74.2157 57.8088 74.3535C59.6651 74.7573 61.3136 74.1713 62.8803 73.2792C65.1496 71.987 66.6783 70.0021 67.889 67.744C68.8314 65.9961 69.5165 64.1213 69.923 62.1775C70.8197 58.2312 70.6293 54.1155 69.372 50.2688C68.932 49.0115 68.2583 47.8487 67.3864 46.8416C66.9178 46.3079 66.4926 45.7376 66.1151 45.136C65.8701 44.7604 65.7452 44.3192 65.7569 43.8709C65.7686 43.4226 65.9164 42.9885 66.1806 42.6262C67.6035 40.5493 69.4924 39.2735 72.1044 39.3892C72.7307 39.4298 73.3424 39.5961 73.9031 39.878C74.4638 40.1599 74.9621 40.5518 75.3682 41.0303C76.1204 41.8479 76.7701 42.759 77.4899 43.6075C77.7197 43.908 78.0192 44.1482 78.3625 44.3073C78.7058 44.4664 79.0826 44.5396 79.4604 44.5208C79.6367 44.5208 79.8105 44.4785 79.967 44.3975C80.1236 44.3164 80.2584 44.199 80.3601 44.055C80.4619 43.9111 80.5276 43.7448 80.5517 43.5702C80.5759 43.3955 80.5577 43.2176 80.4989 43.0515C80.3937 42.7103 80.2204 42.3939 79.9895 42.1216C79.7585 41.8493 79.4748 41.6267 79.1553 41.4672C79.0192 41.3888 78.8821 41.3118 78.6288 41.1681ZM52.7218 67.5188C52.8923 67.3157 52.9873 67.2098 53.0745 67.0977C54.0328 65.87 54.8245 64.521 55.4291 63.0857C55.9415 61.9303 56.2245 60.6863 56.2624 59.423C56.2771 58.3554 55.8503 57.5655 55.1001 57.2604C54.6877 57.1098 54.2399 57.0852 53.8135 57.1897C53.3871 57.2942 53.0014 57.5231 52.7053 57.8472C52.2715 58.365 51.9935 58.9952 51.9034 59.6646C51.5486 61.9099 51.6893 64.2057 52.3156 66.391C52.4078 66.7444 52.5622 67.0811 52.7218 67.5188Z" fill="#FF0000"/>
</svg>
